<svg id="visual" viewBox="0 0 900 600" width="900" height="600" xmlns="http://www.w3.org/2000/svg" xmlns:xlink="http://www.w3.org/1999/xlink" version="1.1"><g><g transform="translate(815 336)"><path d="M88.3 -30.3C101 10.3 88.5 57.5 56.7 81.5C24.8 105.5 -26.5 106.2 -59.4 82.2C-92.4 58.2 -107.1 9.3 -94.1 -31.7C-81.2 -72.8 -40.6 -106 -1.4 -105.6C37.8 -105.1 75.7 -71 88.3 -30.3Z" stroke="#f8b400" fill="none" stroke-width="20"></path></g><g transform="translate(429 104)"><path d="M74.6 -25.1C83.7 3.8 69.2 39.5 42.3 59.3C15.4 79 -23.9 82.9 -48.5 65.4C-73.2 47.8 -83.4 8.7 -72.8 -22.1C-62.3 -52.9 -31.2 -75.4 0.8 -75.7C32.8 -75.9 65.5 -53.9 74.6 -25.1Z" stroke="#f8b400" fill="none" stroke-width="20"></path></g><g transform="translate(135 329)"><path d="M65.5 -19.9C75.1 8.2 66.4 43.7 40.9 64C15.5 84.3 -26.5 89.3 -52.7 70.7C-78.9 52.1 -89.2 9.9 -77.7 -20.8C-66.3 -51.5 -33.2 -70.6 -2.6 -69.8C28 -68.9 55.9 -48.1 65.5 -19.9Z" stroke="#f8b400" fill="none" stroke-width="20"></path></g><g transform="translate(522 561)"><path d="M65.5 -18.1C76.1 11.3 69.9 49.5 45.8 68.2C21.7 86.9 -20.3 86.3 -45.2 67C-70.2 47.7 -78.2 9.9 -67.9 -19.3C-57.5 -48.4 -28.8 -68.8 -0.6 -68.6C27.5 -68.4 54.9 -47.6 65.5 -18.1Z" stroke="#f8b400" fill="none" stroke-width="20"></path></g><g transform="translate(120 27)"><path d="M71.3 -20.6C82.5 11.2 74.7 51.6 49.6 70.4C24.5 89.1 -17.9 86.1 -47.3 64.8C-76.7 43.6 -93 4 -83 -26.2C-72.9 -56.4 -36.5 -77.3 -3.2 -76.3C30.1 -75.3 60.2 -52.3 71.3 -20.6Z" stroke="#f8b400" fill="none" stroke-width="20"></path></g></g></svg>