<svg id="visual" viewBox="0 0 900 600" width="900" height="600" xmlns="http://www.w3.org/2000/svg" xmlns:xlink="http://www.w3.org/1999/xlink" version="1.1"><path d="M0 303L129 303L129 277L257 277L257 359L386 359L386 355L514 355L514 292L643 292L643 281L771 281L771 369L900 369L900 350L900 601L900 601L771 601L771 601L643 601L643 601L514 601L514 601L386 601L386 601L257 601L257 601L129 601L129 601L0 601Z" fill="#cd871e"></path><path d="M0 370L129 370L129 409L257 409L257 383L386 383L386 347L514 347L514 400L643 400L643 450L771 450L771 364L900 364L900 435L900 601L900 601L771 601L771 601L643 601L643 601L514 601L514 601L386 601L386 601L257 601L257 601L129 601L129 601L0 601Z" fill="#e39d15"></path><path d="M0 453L129 453L129 518L257 518L257 494L386 494L386 505L514 505L514 523L643 523L643 540L771 540L771 538L900 538L900 445L900 601L900 601L771 601L771 601L643 601L643 601L514 601L514 601L386 601L386 601L257 601L257 601L129 601L129 601L0 601Z" fill="#f8b400"></path></svg>